<svg width="32" height="32" viewBox="0 0 32 32" fill="none" xmlns="http://www.w3.org/2000/svg">
<path d="M16.0005 16.0005C14.4091 16.0005 12.8829 15.3683 11.7577 14.2431C10.6324 13.1178 10.0003 11.5916 10.0003 10.0003C10.0003 8.40889 10.6324 6.8827 11.7577 5.75743C12.8829 4.63217 14.4091 4 16.0005 4C17.5919 4 19.1181 4.63217 20.2433 5.75743C21.3686 6.8827 22.0008 8.40889 22.0008 10.0003C22.0008 11.5916 21.3686 13.1178 20.2433 14.2431C19.1181 15.3683 17.5919 16.0005 16.0005 16.0005ZM17.9047 16.1509C23.6262 17.0634 28 22.0218 28 28H4C4 22.0218 8.37385 17.0634 14.0963 16.1509L16.0005 18.0551L17.9047 16.1499V16.1509ZM15.9995 26.2864L18.0551 24.2348L15.9995 18.0631L13.9459 24.2308L16.0005 26.2864H15.9995Z" fill="#95BC58"/>
</svg>
