<?xml version="1.0" standalone="no"?>
<!DOCTYPE svg PUBLIC "-//W3C//DTD SVG 20010904//EN"
 "http://www.w3.org/TR/2001/REC-SVG-20010904/DTD/svg10.dtd">
<svg version="1.0" xmlns="http://www.w3.org/2000/svg"
 width="700.000000pt" height="700.000000pt" viewBox="0 0 700.000000 700.000000"
 preserveAspectRatio="xMidYMid meet">
<metadata>
Created by potrace 1.14, written by Peter Selinger 2001-2017
</metadata>
<g transform="translate(0.000000,700.000000) scale(0.100000,-0.100000)"
fill="#000000" stroke="none">
<path d="M3205 6959 c-611 -57 -1218 -283 -1715 -639 -97 -69 -354 -280 -348
-285 2 -2 117 -51 256 -109 544 -227 1142 -427 1757 -587 337 -88 473 -91 624
-14 73 37 145 116 191 209 66 133 79 205 91 501 11 252 7 880 -5 893 -28 28
-645 51 -851 31z"/>
<path d="M4490 6836 c0 -2 12 -55 26 -117 91 -406 261 -1004 316 -1112 11 -22
38 -59 61 -84 89 -97 208 -124 368 -84 114 28 391 166 752 373 l75 42 -67 69
c-274 285 -672 565 -1036 730 -173 78 -495 197 -495 183z"/>
<path d="M820 5692 c-461 -571 -723 -1222 -781 -1937 -15 -185 -7 -554 16
-720 61 -453 192 -855 408 -1249 45 -81 87 -150 94 -153 12 -5 1077 789 1343
1002 344 276 695 591 1046 940 242 241 312 322 364 426 99 195 73 377 -75 538
-77 82 -137 128 -325 243 -617 378 -1216 685 -1870 958 -69 29 -127 53 -130
55 -3 1 -43 -45 -90 -103z"/>
<path d="M6105 5178 c-314 -318 -364 -377 -401 -465 -41 -100 -26 -236 35
-322 34 -47 372 -270 732 -481 232 -137 519 -293 526 -286 10 9 -18 297 -43
446 -61 365 -169 695 -329 1010 -56 108 -168 302 -215 370 -15 22 -22 16 -305
-272z"/>
<path d="M5383 3585 c-104 -48 -199 -160 -250 -293 -50 -133 -54 -179 -60
-743 -8 -729 10 -1076 87 -1732 22 -185 40 -344 40 -352 0 -25 18 -18 129 50
762 464 1331 1229 1556 2090 65 248 116 581 92 597 -15 10 -322 109 -547 177
-183 55 -592 163 -685 182 -33 6 -93 20 -134 30 -101 26 -164 24 -228 -6z"/>
<path d="M3881 3379 c-122 -16 -241 -63 -473 -190 -451 -246 -916 -530 -1275
-781 -140 -97 -609 -445 -1150 -855 l-251 -190 71 -89 c200 -250 492 -513 777
-701 447 -295 919 -469 1490 -549 160 -23 649 -26 815 -6 230 29 476 81 675
144 108 34 350 127 350 135 0 27 -96 788 -116 913 -72 469 -203 1065 -339
1545 -98 348 -126 414 -214 508 -59 64 -113 94 -197 112 -76 16 -72 16 -163 4z"/>
</g>
</svg>
