<?xml version="1.0" standalone="no"?>
<!DOCTYPE svg PUBLIC "-//W3C//DTD SVG 20010904//EN"
 "http://www.w3.org/TR/2001/REC-SVG-20010904/DTD/svg10.dtd">
<svg version="1.0" xmlns="http://www.w3.org/2000/svg"
 width="700.000000pt" height="700.000000pt" viewBox="0 0 700.000000 700.000000"
 preserveAspectRatio="xMidYMid meet">
<metadata>
Created by potrace 1.14, written by Peter Selinger 2001-2017
</metadata>
<g transform="translate(0.000000,700.000000) scale(0.100000,-0.100000)"
fill="#000000" stroke="none">
<path d="M3367 6464 c-1 -1 -47 -5 -102 -8 -530 -37 -1063 -232 -1502 -553
-65 -47 -145 -108 -178 -136 -78 -66 -287 -275 -351 -352 -283 -335 -500 -754
-604 -1165 -31 -122 -31 -123 -55 -255 -27 -153 -38 -291 -39 -485 0 -149 10
-350 19 -358 2 -2 49 88 104 200 239 486 464 860 730 1213 103 137 230 293
320 395 42 47 92 103 111 125 140 160 518 516 754 710 27 22 63 52 80 66 169
141 727 521 843 574 17 8 34 18 37 23 4 7 -159 12 -167 6z"/>
<path d="M3735 6372 c-441 -232 -914 -571 -1340 -962 -77 -70 -371 -365 -452
-452 -75 -81 -302 -351 -363 -432 -67 -88 -119 -157 -142 -191 l-22 -30 25 20
c13 11 26 22 29 26 3 3 52 43 110 90 58 46 107 87 110 90 3 3 50 39 105 81
548 412 1146 745 1779 990 170 65 519 185 596 203 8 2 80 22 160 44 269 73
393 99 625 131 153 20 151 20 127 33 -11 7 -69 40 -129 74 -161 92 -370 184
-542 238 -96 30 -265 74 -311 81 -19 3 -42 7 -50 10 -8 3 -35 8 -60 11 -25 3
-61 8 -80 12 -31 6 -52 -2 -175 -67z"/>
<path d="M5269 5866 c-2 -2 -26 -7 -54 -10 -27 -4 -76 -11 -108 -17 -32 -6
-70 -12 -85 -14 -65 -8 -318 -59 -432 -87 -694 -169 -1332 -420 -1920 -755
-91 -52 -181 -105 -200 -117 -19 -13 -73 -47 -120 -77 -256 -163 -553 -384
-785 -583 -233 -201 -584 -559 -786 -800 -13 -16 -28 -34 -34 -40 -37 -42
-118 -140 -151 -184 l-40 -53 22 -127 c81 -464 245 -854 523 -1242 41 -58 77
-107 80 -110 3 -3 30 -34 60 -70 30 -36 106 -117 170 -180 241 -240 486 -415
792 -567 191 -94 476 -194 652 -229 10 -2 26 -5 35 -8 9 -3 33 -7 52 -10 19
-3 78 -12 130 -21 177 -28 506 -38 690 -21 129 13 331 46 435 72 55 14 107 27
115 29 48 11 224 72 307 106 755 314 1331 894 1637 1647 81 198 158 483 181
670 l6 52 -1475 0 c-812 0 -1476 -3 -1477 -7 -4 -34 -3 -897 2 -904 3 -5 344
-10 799 -11 l795 -3 -125 -126 c-223 -224 -473 -387 -753 -490 -75 -28 -232
-72 -296 -84 -14 -3 -37 -7 -51 -10 -14 -3 -43 -7 -65 -10 -22 -3 -62 -8 -90
-11 -71 -10 -330 -11 -390 -3 -27 4 -70 10 -95 13 -141 16 -323 64 -479 126
-355 140 -680 395 -903 707 -105 147 -248 417 -248 468 0 33 475 347 735 487
192 103 448 224 610 287 44 18 89 36 100 41 175 79 786 256 1020 296 17 2 75
13 130 24 108 20 143 26 220 35 28 4 57 8 65 11 8 2 40 6 70 9 30 3 78 8 105
11 28 4 66 7 85 9 19 1 80 7 135 11 124 11 736 12 865 1 221 -18 250 -21 355
-33 28 -4 61 -8 75 -9 40 -4 114 -14 191 -25 39 -6 74 -8 78 -5 5 2 2 37 -6
77 -7 40 -16 84 -18 98 -50 267 -207 679 -340 890 -14 22 -25 42 -25 44 0 12
-159 239 -228 325 -98 122 -321 347 -437 439 -87 70 -97 76 -106 68z"/>
</g>
</svg>
